<svg width="116" height="79" viewBox="0 0 116 79" fill="none" xmlns="http://www.w3.org/2000/svg">
<g clip-path="url(#clip0_1236_363)">
<path fill-rule="evenodd" clip-rule="evenodd" d="M100.58 78.0699C99.6851 78.0699 98.9571 77.3429 98.9571 76.4499V74.9929C98.7011 74.7429 98.5101 74.4409 98.3971 74.1029L98.3871 74.0729L96.5771 63.8799C96.0701 63.9129 95.5771 63.9299 95.1021 63.9299C94.4471 63.9299 93.7951 63.9019 93.1161 63.8439L93.0661 64.1279L93.0561 64.1609C92.9421 64.5009 92.7521 64.8049 92.4961 65.0529V66.5059C92.4961 67.3989 91.7681 68.1259 90.8731 68.1259C89.9831 68.1259 89.2531 67.3989 89.2531 66.5059V64.9529C88.7831 64.4329 88.5831 63.7259 88.7071 63.0429C87.9541 62.8359 87.2201 62.5929 86.5171 62.3229C86.3941 62.2749 86.2721 62.2029 86.1691 62.1129C86.0011 61.9699 85.8351 61.8209 85.6691 61.6659L83.5051 68.0959C83.3931 68.4359 83.2011 68.7359 82.9481 68.9839V70.4389C82.9481 71.3329 82.2181 72.0609 81.3251 72.0609C80.4301 72.0609 79.7021 71.3329 79.7021 70.4389V68.8849C79.1621 68.2849 78.9791 67.4349 79.2381 66.6619L82.2461 57.7139C78.6911 52.6809 76.3021 45.9419 75.5121 38.7059C75.4361 38.0179 75.3901 37.0129 75.3661 36.2919C75.3541 36.0039 75.3461 35.6099 75.3391 35.3059H75.3311V34.8439C75.3311 30.9439 81.8091 28.7739 88.4811 27.9439C83.3911 25.8679 79.5461 23.1499 78.0191 20.4979C77.5121 19.6199 77.2551 18.7509 77.2551 17.9159C77.2551 17.5659 77.302 17.2159 77.3951 16.8759C77.5101 16.4559 77.6991 16.0459 77.9631 15.6589C82.0431 7.51587 89.2391 2.45887 96.7511 2.45887H96.7571L97.0771 1.26687L97.3511 1.20487C97.8811 1.08687 98.431 1.01687 98.993 0.996867L99.076 0.674867L99.3431 0.608867C99.7231 0.512867 100.113 0.463867 100.505 0.463867C101.757 0.463867 102.943 0.943867 103.838 1.81787L104.031 2.00787L103.957 2.28487C104.471 2.59487 104.957 2.96287 105.405 3.37787L105.608 3.56787L105.29 4.74487C111.377 8.25487 115 15.3319 115 23.7599C115 24.4459 114.976 25.1499 114.926 25.8529L114.921 25.9329C114.921 26.2889 114.876 26.6329 114.787 26.9559C114.38 28.4679 113.103 29.6419 111.069 30.3899C114.172 31.9199 114.866 33.6259 114.866 34.8439L114.466 34.8459L114.864 34.8559V35.1009C114.864 35.3079 114.854 35.5809 114.842 35.9479L114.83 36.2929C114.806 37.0069 114.76 38.0029 114.68 38.7059C113.92 45.6779 111.653 52.2399 108.292 57.2129L111.464 66.6629C111.727 67.4359 111.544 68.2879 111.002 68.8889V70.4409C111.002 71.3349 110.274 72.0629 109.382 72.0629C108.486 72.0629 107.757 71.3349 107.757 70.4409V68.9859C107.503 68.7379 107.313 68.4339 107.2 68.0989L104.913 61.2969C104.623 61.5799 104.327 61.8539 104.033 62.1129C103.919 62.2099 103.8 62.2809 103.675 62.3259C102.795 62.6659 101.891 62.9559 100.983 63.1859L102.676 72.7099C102.916 73.4739 102.73 74.3079 102.196 74.9019V76.4519C102.196 77.3449 101.469 78.0719 100.576 78.0719" fill="#FEFEFE"/>
<path fill-rule="evenodd" clip-rule="evenodd" d="M100.504 0C100.074 0 99.646 0.053 99.232 0.158L98.698 0.292L98.632 0.552C98.162 0.584 97.698 0.652 97.249 0.752L96.704 0.874L96.558 1.414L96.4 1.997C88.85 2.15 81.66 7.264 77.562 15.423C77.279 15.843 77.072 16.293 76.947 16.753C76.843 17.133 76.791 17.523 76.791 17.913C76.791 18.833 77.071 19.779 77.616 20.728C79.033 23.19 82.356 25.698 86.786 27.718C80.528 28.722 74.864 30.981 74.864 34.842V35.484L74.878 35.489C74.885 35.759 74.891 36.069 74.9 36.307C74.937 37.367 74.987 38.191 75.05 38.755C75.84 45.975 78.205 52.711 81.73 57.785L78.8 66.512C78.51 67.386 78.683 68.342 79.24 69.052V70.437C79.24 71.587 80.177 72.523 81.327 72.523C82.475 72.523 83.413 71.587 83.413 70.437V69.167C83.649 68.897 83.831 68.585 83.946 68.241L85.883 62.477C86.027 62.597 86.187 62.69 86.353 62.753C86.951 62.983 87.573 63.193 88.209 63.381C88.195 64.005 88.399 64.623 88.789 65.121V66.504C88.789 67.654 89.724 68.589 90.873 68.589C92.023 68.589 92.959 67.653 92.959 66.504V65.236C93.189 64.973 93.369 64.668 93.483 64.336C94.031 64.373 94.566 64.392 95.101 64.392C95.455 64.392 95.819 64.382 96.191 64.365L97.924 74.119L97.936 74.186L97.956 74.25C98.072 74.594 98.254 74.908 98.491 75.178V76.448C98.491 77.598 99.429 78.533 100.578 78.533C101.726 78.533 102.66 77.599 102.66 76.449V75.066C103.205 74.373 103.384 73.449 103.125 72.596L101.513 63.521C102.299 63.305 103.081 63.048 103.846 62.753C104.013 62.691 104.178 62.593 104.326 62.466C104.456 62.356 104.581 62.242 104.706 62.128L106.762 68.242C106.876 68.584 107.058 68.896 107.295 69.165V70.435C107.295 71.585 108.232 72.522 109.383 72.522C110.531 72.522 111.467 71.586 111.467 70.436V69.054C112.027 68.34 112.2 67.384 111.904 66.509L108.804 57.279C112.136 52.267 114.382 45.709 115.142 38.752C115.222 38.038 115.269 37.026 115.294 36.306L115.304 35.956C115.314 35.586 115.324 35.306 115.324 35.096C115.324 34.994 115.327 34.886 115.327 34.863L114.402 34.843V34.841H115.327C115.327 33.616 114.721 31.955 112.137 30.437C114.167 29.455 114.949 28.127 115.234 27.067C115.334 26.713 115.384 26.327 115.384 25.927L115.387 25.88C115.437 25.17 115.461 24.455 115.461 23.76C115.461 15.305 111.876 8.177 105.828 4.524L105.983 3.959L106.13 3.419L105.72 3.037C105.336 2.68 104.925 2.357 104.492 2.073L104.548 1.863L104.158 1.483C103.18 0.528 101.88 0 100.505 0M114.405 34.84V34.842ZM100.505 0.924C101.617 0.924 102.705 1.356 103.517 2.147C103.485 2.267 103.454 2.387 103.42 2.507C104.02 2.834 104.583 3.24 105.093 3.714C104.977 4.132 104.865 4.551 104.753 4.969C110.825 8.302 114.539 15.315 114.539 23.759C114.539 24.436 114.513 25.123 114.465 25.819C114.465 25.834 114.458 25.904 114.458 25.926C114.458 26.236 114.421 26.538 114.34 26.828C113.9 28.465 112.3 29.658 109.753 30.305C112.763 31.519 114.403 33.085 114.403 34.839C114.401 34.839 114.4 34.972 114.4 35.097C114.4 35.359 114.385 35.734 114.37 36.274C114.345 36.984 114.3 37.969 114.222 38.651C113.449 45.733 111.132 52.263 107.782 57.138L111.028 66.806C111.264 67.499 111.045 68.231 110.54 68.696V70.436C110.54 71.076 110.02 71.596 109.382 71.596C108.74 71.596 108.222 71.076 108.222 70.436V68.773C107.962 68.566 107.752 68.285 107.639 67.947L105.113 60.431C104.666 60.901 104.201 61.345 103.728 61.758C103.664 61.814 103.593 61.858 103.513 61.888C102.507 62.276 101.483 62.592 100.451 62.836L102.225 72.818C102.458 73.508 102.24 74.242 101.735 74.708V76.448C101.735 77.088 101.215 77.605 100.575 77.605C99.935 77.605 99.418 77.088 99.418 76.447V74.783C99.156 74.575 98.948 74.297 98.835 73.955L96.958 63.385C96.34 63.435 95.718 63.465 95.1 63.465C94.305 63.465 93.52 63.42 92.733 63.34L92.613 64.01C92.5 64.35 92.293 64.634 92.033 64.84V66.502C92.033 67.14 91.513 67.662 90.873 67.662C90.233 67.662 89.715 67.14 89.715 66.502V64.759C89.21 64.295 88.991 63.564 89.225 62.873L89.253 62.708C88.386 62.486 87.53 62.214 86.683 61.888C86.605 61.858 86.531 61.814 86.466 61.758C86.124 61.463 85.79 61.15 85.46 60.823L83.064 67.947C82.951 68.287 82.744 68.565 82.484 68.772V70.435C82.484 71.075 81.966 71.595 81.324 71.595C80.684 71.595 80.164 71.075 80.164 70.435V68.693C79.659 68.228 79.444 67.497 79.676 66.805L82.76 57.632C79.22 52.707 76.773 45.975 75.973 38.65C75.896 37.97 75.851 36.98 75.827 36.272C75.807 35.737 75.793 34.838 75.793 34.838C75.793 34.838 75.791 34.838 75.791 34.84C75.791 31.16 82.771 28.862 90.451 28.2C84.641 26.122 80.091 23.168 78.421 20.264C77.951 19.454 77.716 18.666 77.716 17.912C77.716 17.6 77.758 17.292 77.838 16.994C77.942 16.609 78.12 16.236 78.358 15.89C82.44 7.737 89.473 2.92 96.753 2.92C96.873 2.92 96.993 2.92 97.113 2.923L97.455 1.656C98.069 1.516 98.695 1.452 99.315 1.452H99.351C99.388 1.319 99.425 1.187 99.459 1.055C99.804 0.969 100.157 0.925 100.505 0.925M75.003 73.84H74.673V73.2H75.09C75.142 73.2 75.196 73.2 75.25 73.21C75.303 73.217 75.35 73.233 75.392 73.253C75.434 73.276 75.468 73.306 75.495 73.346C75.52 73.386 75.532 73.441 75.532 73.506C75.532 73.586 75.519 73.649 75.49 73.693C75.462 73.739 75.42 73.773 75.372 73.793C75.322 73.815 75.267 73.828 75.202 73.833C75.142 73.836 75.072 73.839 75.002 73.839L75.003 73.84ZM75.695 73.922C75.797 73.836 75.845 73.704 75.845 73.522C75.845 73.327 75.79 73.184 75.675 73.088C75.558 72.991 75.382 72.943 75.141 72.943H74.361V74.963H74.674V74.093H75.008L75.558 74.963H75.894L75.318 74.073C75.468 74.056 75.595 74.007 75.696 73.923L75.695 73.922ZM76.343 74.534C76.273 74.717 76.17 74.871 76.043 75.004C75.917 75.137 75.766 75.24 75.593 75.317C75.421 75.391 75.236 75.43 75.036 75.43C74.833 75.43 74.646 75.39 74.47 75.317C74.295 75.24 74.145 75.137 74.018 75.004C73.89 74.871 73.788 74.717 73.716 74.534C73.646 74.354 73.608 74.158 73.608 73.946C73.608 73.739 73.645 73.55 73.716 73.369C73.789 73.189 73.89 73.035 74.018 72.905C74.145 72.772 74.295 72.67 74.47 72.595C74.645 72.519 74.833 72.483 75.036 72.483C75.236 72.483 75.421 72.519 75.594 72.596C75.766 72.67 75.917 72.772 76.044 72.906C76.17 73.036 76.272 73.19 76.344 73.368C76.417 73.548 76.452 73.738 76.452 73.944C76.452 74.156 76.417 74.354 76.342 74.532L76.343 74.534ZM76.628 73.266C76.534 73.056 76.41 72.876 76.252 72.722C76.097 72.567 75.914 72.447 75.705 72.358C75.495 72.271 75.272 72.228 75.035 72.228C74.797 72.228 74.575 72.271 74.365 72.358C74.153 72.448 73.968 72.568 73.811 72.722C73.653 72.876 73.527 73.057 73.433 73.266C73.343 73.476 73.295 73.702 73.295 73.946C73.295 74.196 73.342 74.426 73.433 74.636C73.527 74.848 73.653 75.032 73.813 75.188C73.969 75.344 74.153 75.462 74.365 75.548C74.575 75.638 74.798 75.678 75.037 75.678C75.273 75.678 75.497 75.638 75.707 75.548C75.915 75.463 76.097 75.344 76.253 75.188C76.411 75.032 76.535 74.848 76.629 74.638C76.721 74.426 76.767 74.195 76.767 73.946C76.767 73.702 76.721 73.476 76.629 73.266H76.628ZM65.536 74.568C63.482 74.568 62.304 73.688 62.304 72.155C62.304 70.81 63.484 69.941 65.312 69.941C67.859 69.941 69.262 70.721 69.262 72.131C69.262 73.611 67.8 74.569 65.536 74.569V74.568ZM65.486 58.274C66.918 58.274 67.774 59.538 67.774 61.656C67.774 64.036 66.964 65.458 65.61 65.458C64.1 65.458 63.197 64.138 63.197 61.928C63.197 59.742 64.117 58.274 65.487 58.274H65.486ZM68.316 67.794L66.498 67.564C65.078 67.404 64.588 67.331 64.588 66.968C64.588 66.688 64.806 66.646 65.743 66.583C66.285 66.546 66.958 66.5 67.801 66.34C70.375 65.834 72.034 64.093 72.034 61.903C72.034 60.173 71.104 58.921 69.054 57.859C69.339 57.653 69.627 57.479 69.904 57.479C70.684 57.479 71.29 58.089 71.528 59.109L71.558 59.242H72.038L73.258 55.472L72.165 55.378C70.595 55.378 69.142 56.08 67.842 57.45C67.095 57.307 66.25 57.165 65.512 57.165C61.85 57.165 59.089 59.211 59.089 61.925C59.089 63.935 60.439 65.419 62.809 66.095C61.139 66.455 60.353 67.022 60.353 67.859C60.353 68.529 60.885 68.967 61.939 69.193C59.425 69.721 58.437 70.688 58.437 72.165C58.437 74.255 61.037 75.675 65.265 75.675C70.129 75.675 73.155 74.011 73.155 71.335C73.155 68.977 71.219 68.212 68.318 67.792L68.316 67.794ZM50.619 74.568C48.565 74.568 47.387 73.688 47.387 72.155C47.387 70.81 48.567 69.941 50.395 69.941C52.943 69.941 54.348 70.721 54.348 72.131C54.348 73.611 52.884 74.569 50.618 74.569L50.619 74.568ZM50.569 58.274C52.003 58.274 52.859 59.538 52.859 61.656C52.859 64.036 52.049 65.458 50.694 65.458C49.184 65.458 48.281 64.138 48.281 61.928C48.281 59.742 49.201 58.274 50.571 58.274H50.569ZM53.399 67.794L51.582 67.564C50.162 67.404 49.672 67.331 49.672 66.968C49.672 66.688 49.89 66.646 50.827 66.583C51.369 66.546 52.043 66.5 52.885 66.34C55.457 65.834 57.119 64.093 57.119 61.903C57.119 60.175 56.189 58.921 54.139 57.859C54.422 57.653 54.709 57.479 54.989 57.479C55.765 57.479 56.374 58.089 56.609 59.109L56.642 59.242H57.122L58.342 55.472L57.247 55.378C55.677 55.378 54.227 56.08 52.925 57.45C52.179 57.307 51.332 57.165 50.595 57.165C46.932 57.165 44.169 59.211 44.169 61.925C44.169 63.935 45.522 65.419 47.889 66.095C46.219 66.455 45.436 67.022 45.436 67.859C45.436 68.529 45.966 68.967 47.019 69.193C44.506 69.721 43.275 70.701 43.275 72.179C43.275 74.269 46.117 75.675 50.345 75.675C55.212 75.675 58.025 74.058 58.025 71.381C58.025 69.024 56.302 68.211 53.4 67.791L53.399 67.794ZM43.409 64.346L43.335 64.471C41.33 67.838 39.18 69.474 36.762 69.474C34.57 69.474 34.378 68.587 34.378 64.054V61.714C34.768 61.677 35.158 61.667 35.536 61.667C38.062 61.667 39.638 62.699 40.091 64.65L40.123 64.78H40.737V57.435H40.123L40.09 57.565C39.65 59.39 38.004 60.438 35.577 60.438C35.577 60.438 34.627 60.398 34.377 60.39V53.763C34.725 53.725 35.075 53.713 35.449 53.713C38.403 53.713 40.589 54.903 42.329 57.447L42.404 57.557L43.004 57.352L41.9 52.43H32.87L29.518 52.378L29.238 52.37L29.066 53.055L29.186 53.095C30.021 53.371 30.334 53.915 30.334 55.102V64.332C30.334 68.125 30.278 69.818 28.937 70.175L28.807 70.209V70.881L28.997 70.867C29.973 70.793 30.995 70.757 32.117 70.757L33.557 70.784H42.549L43.989 64.56L43.407 64.346H43.409ZM71.985 45.24V43.055C71.985 38.849 70.281 36.805 66.775 36.805C64.805 36.805 63.395 37.65 62.478 39.373V37.073L62.262 37.135C60.992 37.501 59.406 37.799 57.548 38.025L57.398 38.04V38.62L57.554 38.632C58.667 38.717 58.788 39.185 58.788 40.994V45.241C58.788 48.044 58.725 49.411 57.292 49.875L57.174 49.913V50.431L57.794 50.421L60.694 50.379L64.117 50.429L64.289 50.432V49.91L64.167 49.875C62.734 49.465 62.675 48.09 62.675 45.02V43.28C62.675 40.412 63.837 38.56 65.635 38.56C67.343 38.56 68.071 39.97 68.071 43.28V45.64C68.071 48.32 67.938 49.45 66.601 49.876L66.481 49.914V50.432L67.101 50.422L70.001 50.38L73.426 50.43L73.598 50.433V49.911L73.475 49.876C72.112 49.48 71.983 48.291 71.983 45.244L71.985 45.24ZM50.52 37.888C51.783 37.888 52.61 39.136 52.72 41.148H48.043C48.37 39.08 49.263 37.888 50.521 37.888H50.52ZM57.32 42.381L57.292 42.189C56.812 38.752 54.38 36.782 50.622 36.782C46.414 36.782 43.475 39.627 43.475 43.704C43.475 47.839 46.465 50.727 50.745 50.727C54.185 50.727 56.451 48.949 57.485 45.44L57.515 45.337L56.559 44.487L56.489 44.753C55.719 47.661 54.179 49.197 52.034 49.197C49.468 49.197 47.934 47.033 47.934 43.407L47.976 42.383H57.319L57.32 42.381ZM35.376 37.888C36.634 37.888 37.463 39.136 37.576 41.148H32.896C33.224 39.08 34.118 37.888 35.376 37.888ZM35.6 50.726C39.037 50.726 41.305 48.948 42.34 45.439L42.37 45.336L41.413 44.486L41.343 44.752C40.575 47.66 39.035 49.196 36.889 49.196C34.322 49.196 32.789 47.032 32.789 43.406L32.829 42.382H42.171L42.145 42.19C41.665 38.753 39.232 36.783 35.473 36.783C31.267 36.783 28.329 39.628 28.329 43.705C28.329 47.84 31.319 50.728 35.599 50.728L35.6 50.726ZM28.002 36.78C26.312 36.78 24.945 37.733 23.927 39.598V37.048L23.712 37.11C22.614 37.427 20.952 37.726 18.772 37.998L18.625 38.018V38.62L18.779 38.632C19.893 38.717 20.013 39.185 20.013 40.994V45.464C20.013 48.296 19.887 49.408 18.54 49.849L18.426 49.886V50.429L19.101 50.417L21.923 50.377L25.343 50.427L25.518 50.43V49.88L25.395 49.847C24.048 49.472 23.928 48.357 23.928 45.265V44.073C23.928 42.531 24.258 40.693 25.818 40.693C26.176 40.693 26.455 40.835 26.678 41.123L26.728 41.19H27.258L28.732 36.818L28.004 36.781L28.002 36.78ZM18.759 41.655L18.881 41.619V40.959L18.703 40.969C17.103 41.039 15.635 41.075 14.343 41.075C12.859 41.075 11.457 41.04 10.057 40.968L9.877 40.958V41.644L10.032 41.659C12.529 41.889 12.782 42.552 12.782 45.287C12.782 48.697 12.074 49.737 9.749 49.737C6.546 49.737 5.053 47.081 5.053 41.38C5.053 35.802 6.817 33.09 10.445 33.09C13.225 33.09 14.835 34.873 15.367 38.54L15.382 38.655L15.992 38.797L17.546 34.107L17.44 34.035C15.3 32.605 12.77 31.851 10.122 31.851C4.068 31.85 0 35.66 0 41.33C0 47.175 3.907 50.95 9.95 50.95C12.974 50.95 15.365 50.123 17.262 48.422L17.32 48.368L17.243 46.576V43.57C17.243 42.373 17.541 41.997 18.759 41.657V41.655ZM65.485 17.785C66.917 17.785 67.773 19.049 67.773 21.167C67.773 23.547 66.963 24.969 65.609 24.969C64.099 24.969 63.196 23.649 63.196 21.439C63.196 19.253 64.116 17.785 65.486 17.785H65.485ZM65.311 29.453C67.858 29.453 69.261 30.231 69.261 31.641C69.261 33.123 67.799 34.078 65.535 34.078C63.481 34.078 62.303 33.198 62.303 31.666C62.303 30.322 63.483 29.454 65.311 29.454V29.453ZM62.806 25.608C61.134 25.968 60.35 26.538 60.35 27.373C60.35 28.043 60.882 28.479 61.936 28.706C59.422 29.234 58.543 30.206 58.543 31.681C58.543 33.773 61.033 35.188 65.263 35.188C70.126 35.188 73.151 33.525 73.151 30.848C73.151 28.491 71.217 27.728 68.316 27.305L66.499 27.079C65.079 26.919 64.589 26.845 64.589 26.479C64.589 26.201 64.807 26.159 65.744 26.096C66.284 26.059 66.959 26.013 67.802 25.853C70.376 25.348 72.035 23.607 72.035 21.416C72.035 19.688 71.105 18.434 69.055 17.372C69.34 17.169 69.628 16.992 69.905 16.992C70.685 16.992 71.291 17.602 71.529 18.624L71.559 18.756H72.039L73.259 14.986L72.166 14.893C70.596 14.893 69.143 15.598 67.843 16.967C67.096 16.824 66.251 16.681 65.513 16.681C61.851 16.681 59.09 18.728 59.09 21.443C59.09 23.453 60.44 24.937 62.81 25.611L62.806 25.608ZM52.486 20.895V25.362C52.486 27.992 52.414 29.277 50.812 29.742L50.692 29.777V30.38L50.869 30.37C52.149 30.303 53.376 30.27 54.619 30.27C56.037 30.27 57.196 30.303 58.375 30.37L58.555 30.38V29.772L58.425 29.742C56.897 29.362 56.863 28.25 56.863 25.162V21.737C56.863 20.157 56.863 18.664 56.948 17.205L56.958 16.985L56.741 17.03C55.267 17.344 53.463 17.62 51.063 17.895L50.915 17.915V18.52L51.071 18.53C52.345 18.618 52.484 19.085 52.484 20.895H52.486ZM54.462 15.192C55.915 15.192 57.009 14.445 57.009 13.457C57.009 12.469 55.915 11.722 54.462 11.722C53.012 11.722 51.916 12.469 51.916 13.457C51.916 14.477 52.964 15.192 54.462 15.192ZM40.55 21.117L42.217 21.042C45.262 21.042 46.394 22.15 46.394 25.136C46.394 27.778 45.221 29.061 42.806 29.061C40.626 29.061 40.551 28.253 40.551 24.435V21.118L40.55 21.117ZM40.55 13.091C40.782 13.076 41.584 13.019 41.584 13.019C44.236 13.019 45.367 13.993 45.367 16.272C45.367 18.75 44.243 19.806 41.605 19.806L40.739 19.77L40.549 19.76V13.09L40.55 13.091ZM38.46 30.297L41.37 30.347L43.243 30.381C48.27 30.381 50.818 28.579 50.818 25.024C50.818 22.3 49.111 20.686 45.775 20.188C48.293 19.575 49.572 18.188 49.572 16.048C49.572 13.098 47.339 11.726 42.544 11.726L40.851 11.75L38.154 11.782L35.344 11.752V12.374L35.48 12.399C36.157 12.522 36.607 12.931 36.607 14.531V24.097C36.607 27.98 36.541 29.343 35.221 29.741L35.101 29.777V30.389L35.281 30.379C36.314 30.323 37.354 30.295 38.461 30.295L38.46 30.297Z" fill="#222222"/>
<path fill-rule="evenodd" clip-rule="evenodd" d="M114.525 23.7601C114.525 15.3161 110.812 8.30409 104.74 4.97009C104.85 4.55209 104.964 4.13309 105.077 3.71509C104.567 3.24209 104.005 2.83509 103.405 2.50809C103.439 2.38809 103.469 2.26809 103.502 2.14809C102.435 1.10809 100.892 0.691092 99.4423 1.05509C99.4093 1.18809 99.3723 1.31909 99.3373 1.45309C98.7043 1.45009 98.0673 1.51309 97.4373 1.65509L97.0993 2.92509C89.6873 2.76009 82.4903 7.60209 78.3503 15.8921C78.1103 16.2381 77.9323 16.6091 77.8283 16.9951C77.7483 17.2931 77.7063 17.6001 77.7063 17.9131C77.7063 18.6671 77.9403 19.4531 78.4083 20.2631C80.0813 23.1691 84.6283 26.1231 90.4383 28.1991C82.7583 28.8611 75.7803 31.1621 75.7803 34.8411C75.7803 34.8211 75.7973 35.7341 75.8163 36.2741C75.8393 36.9841 75.8843 37.9711 75.9613 38.6541C76.7613 45.9761 79.2093 52.7091 82.7483 57.6341L79.6643 66.8071C79.4343 67.4991 79.6493 68.2291 80.1543 68.6931V70.4371C80.1543 71.0771 80.6743 71.5971 81.3143 71.5971C81.9543 71.5971 82.4723 71.0771 82.4723 70.4371V68.7731C82.7353 68.5681 82.9423 68.2871 83.0543 67.9481L85.4503 60.8231C85.7783 61.1491 86.1143 61.4631 86.4573 61.7601C86.5203 61.8141 86.5943 61.8581 86.6723 61.8881C87.5183 62.2151 88.3753 62.4851 89.2423 62.7101L89.2143 62.8741C88.9813 63.5641 89.1983 64.2971 89.7043 64.7601V66.5031C89.7043 67.1411 90.2243 67.6611 90.8613 67.6611C91.5013 67.6611 92.0213 67.1411 92.0213 66.5031V64.8411C92.2813 64.6351 92.4893 64.3511 92.6033 64.0131L92.7233 63.3431C93.5073 63.4231 94.2933 63.4631 95.0873 63.4631C95.7093 63.4631 96.3293 63.4361 96.9473 63.3851L98.8203 73.9601C98.9343 74.3001 99.1433 74.5781 99.4033 74.7851V76.4491C99.4033 77.0891 99.9213 77.6061 100.563 77.6061C101.203 77.6061 101.721 77.0891 101.721 76.4481V74.7081C102.226 74.2421 102.443 73.5081 102.209 72.8181L100.439 62.8351C101.472 62.5921 102.493 62.2751 103.499 61.8881C103.579 61.8581 103.649 61.8141 103.715 61.7601C104.188 61.3451 104.651 60.9001 105.099 60.4331L107.626 67.9471C107.741 68.2851 107.949 68.5671 108.208 68.7711V70.4351C108.208 71.0751 108.728 71.5951 109.368 71.5951C110.008 71.5951 110.526 71.0751 110.526 70.4351V68.6951C111.031 68.2311 111.249 67.4981 111.014 66.8051L107.768 57.1351C111.118 52.2621 113.435 45.7311 114.208 38.6491C114.284 37.9671 114.33 36.9811 114.354 36.2721C114.372 35.7321 114.387 35.3581 114.387 35.0951V34.8391C114.387 33.0841 112.747 31.5191 109.737 30.3041C112.282 29.6571 113.885 28.4641 114.323 26.8261C114.405 26.5341 114.443 26.2321 114.443 25.9231L114.447 25.8131C114.497 25.1191 114.521 24.4331 114.521 23.7551" fill="#001722"/>
<path fill-rule="evenodd" clip-rule="evenodd" d="M95.0826 40.97C84.8406 40.97 76.5326 38.245 76.4826 34.876C76.4786 36.086 76.5396 37.322 76.6786 38.573C77.7506 48.377 81.7986 56.746 86.9286 61.218C89.4906 62.202 92.2316 62.744 95.0856 62.744C95.6686 62.744 96.2436 62.716 96.8156 62.67L96.1256 58.75C95.8086 57.81 96.3116 56.8 97.2496 56.483C98.1876 56.168 99.1996 56.673 99.5126 57.61L100.313 62.126C101.31 61.888 102.289 61.582 103.24 61.218C108.37 56.746 112.42 48.378 113.493 38.573C113.631 37.315 113.693 36.073 113.687 34.853H113.683C113.663 38.235 105.345 40.971 95.0826 40.971" fill="#00573C"/>
<path fill-rule="evenodd" clip-rule="evenodd" d="M109.639 42.6069C108.754 46.8229 107.304 50.7669 105.439 54.1149C106.475 50.9749 107.173 47.5469 107.879 43.2249C108.505 43.0489 109.093 42.8249 109.639 42.6069Z" fill="#FEFEFE"/>
<path fill-rule="evenodd" clip-rule="evenodd" d="M106.7 30.0599C110.476 29.7599 113.107 28.5869 113.63 26.6419C114.633 22.9239 107.584 17.7949 97.8924 15.1839C88.2004 12.5699 79.5274 13.4659 78.5274 17.1839C77.5254 20.9009 84.5734 26.0339 94.2674 28.6439C94.3654 28.6709 94.4644 28.6939 94.5634 28.7199C84.5314 28.8119 76.4814 31.5179 76.4814 34.8429C76.4814 38.2279 84.8114 40.9709 95.0844 40.9709C105.357 40.9709 113.686 38.2289 113.686 34.8439C113.686 32.9079 110.956 31.1839 106.702 30.0609" fill="#001722"/>
<path fill-rule="evenodd" clip-rule="evenodd" d="M79.123 34.8441C79.123 32.1371 86.306 29.9441 95.163 29.9441C104.028 29.9441 111.21 32.1371 111.21 34.8441C111.21 37.5521 104.028 39.7441 95.164 39.7441C86.306 39.7441 79.124 37.5521 79.124 34.8441" fill="#FEFEFE"/>
<path fill-rule="evenodd" clip-rule="evenodd" d="M97.8921 15.1831C106.917 17.6131 113.645 22.2301 113.722 25.8531C114.43 15.5991 109.635 6.5501 100.864 4.1911C92.0781 1.8211 83.3541 7.2071 78.8281 16.4811C80.6881 13.3631 88.8421 12.7461 97.8921 15.1841" fill="#00573C"/>
<path fill-rule="evenodd" clip-rule="evenodd" d="M103.301 5.06012L103.677 3.66012C103.417 3.47312 103.154 3.28012 102.835 3.27612L102.45 4.70412C102.737 4.81412 103.023 4.93412 103.302 5.06012M105.296 28.1201C102.274 28.1201 98.5563 27.5681 94.8263 26.5631C90.6723 25.4451 86.9033 23.8891 84.2183 22.1831C81.6283 20.5391 80.3263 18.9091 80.6503 17.7101C81.0083 16.3801 83.2783 15.6201 86.8773 15.6201C89.8993 15.6201 93.6173 16.1721 97.3523 17.1771C104.075 18.9871 109.782 22.0111 111.229 24.5271C111.544 25.0771 111.645 25.5811 111.525 26.0291C111.165 27.3591 108.895 28.1191 105.295 28.1191" fill="#FEFEFE"/>
<path fill-rule="evenodd" clip-rule="evenodd" d="M86.8798 15.4322C83.3218 15.4322 80.8679 16.1872 80.4699 17.6622C79.7459 20.3552 86.1529 24.4192 94.7779 26.7442C98.6779 27.7942 102.362 28.3082 105.298 28.3082C108.855 28.3082 111.308 27.5512 111.706 26.0782C112.434 23.3882 106.028 19.3202 97.4029 16.9982C93.5029 15.9482 89.8158 15.4322 86.8788 15.4322M86.8788 15.4322V15.8052C89.8848 15.8052 93.5889 16.3572 97.3049 17.3572C103.985 19.1572 109.645 22.1412 111.069 24.6192C111.359 25.1262 111.453 25.5822 111.346 25.9792C111.016 27.2032 108.754 27.9342 105.296 27.9342C102.289 27.9342 98.5899 27.3842 94.8759 26.3822C90.7359 25.2682 86.9889 23.7202 84.3159 22.0252C81.7999 20.4282 80.5289 18.8722 80.8309 17.7572C81.1589 16.5342 83.4209 15.8042 86.8779 15.8042V15.4312" fill="#001722"/>
<path fill-rule="evenodd" clip-rule="evenodd" d="M107.268 9.13015C109.38 11.5132 110.672 14.2881 110.998 17.2171C110.948 17.1771 110.895 17.1342 110.84 17.0942C110.354 16.7142 109.808 16.2882 109.204 15.9442C109.14 13.5742 108.491 11.2942 107.268 9.12915" fill="#FEFEFE"/>
<path fill-rule="evenodd" clip-rule="evenodd" d="M98.5522 12.523C91.5442 10.635 85.0492 10.753 80.9622 12.347C80.4382 13.107 79.8622 14.051 79.4082 14.884C82.0512 12.418 89.2432 11.764 98.1122 14.154C107.048 16.561 112.844 20.817 113.942 24.092C113.972 23.127 113.95 22.179 113.882 21.248C111.158 17.801 105.584 14.418 98.5522 12.523Z" fill="#001722"/>
<path fill-rule="evenodd" clip-rule="evenodd" d="M109.788 34.7539C109.788 34.5539 109.732 34.3579 109.632 34.1639C109.472 33.9839 109.329 33.7999 109.21 33.6179C108.61 33.0379 107.567 32.5119 106.193 32.0699C105.473 33.4339 107.696 34.8269 108.843 36.2079C109.448 35.7579 109.788 35.2679 109.788 34.7539ZM107.402 37.0039C106.717 35.2189 102.882 33.4039 104.664 31.6439C103.957 31.4759 103.194 31.3269 102.379 31.1979C98.9739 33.3839 105.432 35.6679 104.641 37.8839C105.704 37.6279 106.633 37.3339 107.401 37.0039M99.341 38.6979C100.483 38.6009 101.565 38.4659 102.574 38.2979C104.559 35.8879 96.5019 33.3759 100.87 30.9859C100.08 30.8959 99.2599 30.8219 98.4079 30.7679C92.9439 33.3529 102.845 36.0909 99.341 38.6979ZM94.424 38.8679C94.6709 38.8699 94.9209 38.8699 95.1699 38.8699C95.8969 38.8699 96.6099 38.8549 97.3079 38.8269C101.403 36.1719 90.9879 33.3769 96.5979 30.7389L93.7649 30.7109C88.1229 33.3729 98.7909 36.1929 94.4229 38.8659M90.2129 38.6329C91.0289 38.7129 91.8769 38.7729 92.7529 38.8129C96.9609 36.1779 86.6729 33.3989 91.9489 30.7729C90.7149 30.8499 89.5409 30.9729 88.4489 31.1329C84.9139 33.5929 93.5929 36.1709 90.2119 38.6329M88.452 38.4149C91.028 36.1649 84.0869 33.8149 86.1119 31.5569C84.8679 31.8339 83.7879 32.1669 82.9189 32.5409C83.1159 34.3449 87.2029 36.1889 86.0359 37.9769C86.7839 38.1449 87.5919 38.2919 88.452 38.4149ZM84.4019 37.5549C82.0099 36.8249 80.5439 35.8529 80.5439 34.7809C80.5439 34.2859 80.8589 33.8109 81.4339 33.3689C82.3539 34.7619 84.7219 36.1709 84.4039 37.5549" fill="#00573C"/>
<path fill-rule="evenodd" clip-rule="evenodd" d="M85.2021 57.418C85.4281 57.81 86.1561 59.091 87.1821 60.36C88.9921 61.01 92.1661 61.742 94.1301 61.683C94.5461 60.761 94.6951 60.279 95.0241 59.267C91.5041 59.234 88.4601 58.497 85.2021 57.417" fill="#FEFEFE"/>
<path fill-rule="evenodd" clip-rule="evenodd" d="M90.857 59.0531C90.787 59.0411 90.717 59.0911 90.707 59.1631L90.687 59.3001C89.329 59.1031 88.283 58.8771 86.252 58.1541C86.662 58.9281 87.008 59.4371 87.488 60.1071C88.112 60.3911 89.415 60.7611 90.443 60.9251L90.421 61.0631C90.411 61.1361 90.461 61.2081 90.531 61.2171C90.606 61.2271 90.671 61.1791 90.684 61.1051L90.97 59.2051C90.978 59.1311 90.928 59.0631 90.857 59.0531Z" fill="#00573C"/>
<path fill-rule="evenodd" clip-rule="evenodd" d="M98.4525 8.46024C98.6875 8.67524 98.6725 11.3282 96.4225 10.6702C96.5465 10.8072 96.9025 11.2002 97.9775 11.1462C99.0515 11.0912 100.056 9.46624 98.4525 8.46124M93.6695 6.90324C92.8745 7.27324 92.0675 7.25324 91.8645 6.86124C91.6645 6.46824 92.1475 5.85124 92.9445 5.48324C93.7445 5.11524 94.5505 5.13024 94.7515 5.52324C94.9515 5.91724 94.4695 6.53324 93.6685 6.90324M89.4135 9.05824C88.7375 9.61024 87.9555 9.78224 87.6615 9.44824C87.3675 9.11324 87.6775 8.39824 88.3545 7.85024C89.0295 7.30024 89.8145 7.12524 90.1095 7.46024C90.3995 7.79624 90.0895 8.51024 89.4145 9.05724M101.978 5.18024C101.978 5.18024 101.22 4.58024 98.4815 4.22324C95.7435 3.87024 93.9245 4.23524 91.8415 4.91824C91.3815 5.85224 89.8365 6.79824 88.7815 6.26224C88.1735 6.60024 87.5835 6.97624 87.0065 7.38724C87.2565 8.07424 85.9715 9.19724 84.9895 9.02724C84.4355 9.53724 83.9045 10.0952 83.3955 10.6832C85.8525 10.1472 88.8455 10.0192 92.1255 10.3732C92.2125 10.1132 92.3655 9.83324 92.5805 9.56324C93.1255 8.89324 93.8575 8.56924 94.2125 8.84124C94.5685 9.11424 94.4155 9.88124 93.8685 10.5512C93.8535 10.5682 93.8385 10.5812 93.8255 10.5992C94.4855 10.6992 95.1555 10.8172 95.8325 10.9562C95.9705 10.7832 96.1175 10.5312 96.0555 10.3462C95.8855 9.86124 95.9305 9.20124 96.1625 8.74024C96.5595 7.94524 97.6025 8.07024 97.7825 7.78824C98.7425 6.46624 100.405 5.67124 101.979 5.18024" fill="#001722"/>
<path fill-rule="evenodd" clip-rule="evenodd" d="M82.9339 10.3032L82.2139 12.4772L82.7599 12.9602L90.7029 12.8242L91.2759 10.5362L90.6539 9.97321V9.97021" fill="#FEFEFE"/>
<path fill-rule="evenodd" clip-rule="evenodd" d="M91.6957 11.4569L90.7997 10.7029L90.4567 11.9969L91.3727 12.6799M89.9197 12.2029L82.1497 12.4629L90.0537 11.5279M95.0447 41.9869C86.2207 41.9869 77.9107 39.7719 76.4727 36.6269C76.5027 37.3019 76.6197 38.9469 76.6257 38.9819C79.6127 41.9849 87.9857 43.6649 95.1977 43.6649C102.414 43.6649 110.162 42.0979 113.531 39.0449C113.536 39.0109 113.657 37.3049 113.688 36.5949C112.033 39.8229 103.976 41.9869 95.0457 41.9869" fill="#001722"/>
<path fill-rule="evenodd" clip-rule="evenodd" d="M92.3781 54.7861C92.2231 54.8141 92.0921 54.8761 91.9721 54.9581C92.5081 55.1211 92.9951 55.6261 93.1821 56.2801C93.3821 56.9751 93.1781 57.6221 92.7301 57.9321C92.9151 57.9871 93.1051 58.0041 93.2901 57.9721C94.0161 57.8401 94.4001 57.0241 94.1481 56.1451C93.8951 55.2671 93.1041 54.6571 92.3781 54.7851M90.3961 51.5711C90.1601 50.7831 90.3261 50.0571 90.7661 49.9461C91.2101 49.8361 91.7561 50.3841 91.9961 51.1691C92.2311 51.9591 92.0681 52.6891 91.6221 52.7971C91.1821 52.9071 90.6321 52.3601 90.3961 51.5721M87.3961 50.1561C86.9531 50.2611 86.4111 49.6961 86.1861 48.8961C85.9561 48.0901 86.1361 47.3601 86.5801 47.2561C87.0231 47.1521 87.5631 47.7181 87.7901 48.5181C88.0151 49.3221 87.8401 50.0531 87.3971 50.1561M82.8001 46.2001C82.3501 46.2681 81.8671 45.6561 81.7261 44.8401C81.5861 44.0201 81.8411 43.3041 82.2931 43.2401C82.7431 43.1781 83.2251 43.7871 83.3661 44.6041C83.5061 45.4241 83.2531 46.1361 82.8011 46.2001M92.1941 54.1251C92.8401 53.7751 93.4271 53.3071 93.6061 52.5291C93.7261 51.9961 93.6961 51.3951 93.5161 50.7941L93.5131 50.7911V50.7871C93.1891 49.7271 92.8071 49.2711 91.6801 48.6471C91.6741 48.6431 91.6701 48.6391 91.6641 48.6371C91.6211 48.6271 91.4721 48.5741 91.3041 48.4371C91.1161 48.3321 91.1741 48.3651 91.2991 48.4311C91.1191 48.2861 90.9361 48.0491 90.8661 47.6541C90.7861 47.2321 90.7801 46.8591 91.0991 46.0541C91.4191 45.2481 91.3491 45.0441 91.2211 44.2571C90.7071 44.2211 90.2011 44.1811 89.7011 44.1331C89.7141 44.1771 89.7271 44.2211 89.7391 44.2671C89.9321 45.1171 89.7241 45.8741 89.2741 45.9571C88.8261 46.0411 88.3081 45.4211 88.1161 44.5671C88.0661 44.3521 88.0441 44.1441 88.0441 43.9471C83.9071 43.4171 80.5001 42.4471 78.4141 41.2771C79.3261 46.0951 80.4601 49.6371 82.5321 53.3111C84.2951 53.0351 85.2141 55.0811 84.6491 56.3341C86.9331 57.1141 89.1371 57.7041 91.5061 57.9861C91.3231 57.6641 91.1811 57.2831 91.1191 56.8131C90.9271 55.3811 91.5491 54.4731 92.1921 54.1231M92.7101 48.5201C95.5201 48.3151 94.7881 44.3201 91.9501 45.3131C92.9781 45.3301 94.4851 46.9851 92.7101 48.5211M91.6641 48.6411C91.6711 48.6411 91.6841 48.6451 91.6841 48.6451L91.2991 48.4331L91.3021 48.4391L91.6621 48.6391" fill="#001722"/>
</g>
<defs>
<clipPath id="clip0_1236_363">
<rect width="115.464" height="78.533" fill="white"/>
</clipPath>
</defs>
</svg>
