<?xml version="1.0" encoding="UTF-8"?><svg id="Lager_1" xmlns="http://www.w3.org/2000/svg" viewBox="0 0 23.24 20.78"><defs><style>.cls-1{fill:#fff;}.cls-2{fill:#76351a;stroke:#fff;}</style></defs><path class="cls-1" d="M16.2,9.25h-7.5l-3.49-5.01c-.14-.24-.33-.37-.59-.4-.25-.02-.5,.06-.73,.25-.35,.38-.37,.77-.07,1.15l2.73,4H1.49c-.41,0-.77,.15-1.05,.45C.15,9.98,0,10.36,0,10.76v.79C0,12.23,.3,12.68,.9,12.92l2.04,6.52c.09,.34,.28,.64,.55,.92,.28,.28,.59,.41,.93,.41H13.27c.35,0,.66-.14,.93-.41,.28-.28,.46-.58,.55-.92l2.04-6.45c.6-.24,.9-.7,.9-1.37v-.79c0-.46-.14-.83-.43-1.13-.27-.29-.66-.46-1.05-.45h0ZM1.49,10.76H7.67l.52,.72s.07,.02,.07,.07H1.49v-.79Zm11.85,8.25v.07s-.01,.05-.03,.07c-.02,.02-.03,.05-.03,.07H4.49s-.07-.05-.07-.14l-1.9-6.02H15.17l-1.83,5.95Zm-3.83-7.46c.16-.29,.24-.55,.24-.79h6.46v.79h-6.7Zm-4.35,6.31c.02,.17,.12,.31,.28,.43,.16,.12,.32,.18,.48,.18h.14c.18-.05,.33-.17,.45-.36s.14-.38,.07-.58l-.73-3.06c-.05-.19-.16-.35-.35-.47-.18-.12-.37-.14-.55-.07-.18,.05-.33,.17-.45,.36-.12,.19-.14,.37-.07,.54l.73,3.03Zm6.5,.61h.14c.16,0,.32-.06,.48-.18,.16-.12,.25-.26,.28-.43l.73-3.1c.05-.2,.01-.4-.09-.58-.1-.19-.25-.3-.43-.32-.48-.1-.78,.08-.9,.54l-.73,3.06c-.14,.48,.03,.82,.52,1.01Zm-2.8,0c.48,0,.73-.26,.73-.79v-3.06c0-.5-.24-.76-.73-.76s-.73,.25-.73,.76v3.06c0,.53,.24,.79,.73,.79Z"/><ellipse class="cls-2" cx="16.75" cy="6.69" rx="5.99" ry="6.19"/></svg>