<?xml version="1.0" encoding="UTF-8"?><svg id="Lager_1" xmlns="http://www.w3.org/2000/svg" xmlns:xlink="http://www.w3.org/1999/xlink" viewBox="0 0 24.71 23.87"><defs><style>.cls-1{fill:none;}.cls-2{clip-path:url(#clippath);}.cls-3{fill:#fff;}.cls-4{fill:#76351a;stroke:#fff;}</style><clipPath id="clippath"><rect class="cls-1" x=".08" y="3.26" width="20.5" height="20.61"/></clipPath></defs><g class="cls-2"><path class="cls-3" d="M9.71,23.34l7.14-7.54c1.93-2.06,1.92-5.35-.02-7.4-1.9-2.03-5.02-2.06-6.96-.07l-.05,.06-.68,.72-.69-.73c-1.9-2.03-5.01-2.06-6.95-.07l-.05,.05c-1.93,2.04-1.92,5.35,.02,7.4l7.18,7.58c.29,.31,.77,.32,1.07,0h0Zm.92-14.12c1.47-1.55,3.86-1.56,5.35-.03l.04,.05c1.5,1.58,1.5,4.12,.02,5.71h0l-6.86,7.25L2.27,14.92c-1.5-1.58-1.5-4.15-.02-5.72,1.47-1.55,3.86-1.56,5.34-.02l.04,.04,1.1,1.16c.22,.23,.58,.24,.81,0h0l1.09-1.16h0Z"/></g><ellipse class="cls-4" cx="18.22" cy="6.69" rx="5.99" ry="6.19"/></svg>