<svg xmlns="http://www.w3.org/2000/svg" width="32" height="32" fill="none" viewBox="0 0 32 32">
  <path fill="#777677" d="M11.334 9.406v1.556H26.11v3.08l-1.725 5.475H10.844L8.9 5.516H4.333V7.07h3.212L9.49 21.073h16.036l2.14-6.793V9.407H11.335Zm.825 13.237a3.115 3.115 0 0 0-3.111 3.112 3.111 3.111 0 1 0 3.111-3.111Zm0 4.667a1.556 1.556 0 1 1 0-3.11 1.556 1.556 0 0 1 0 3.11Zm10.889-4.666a3.115 3.115 0 0 0-3.111 3.11 3.111 3.111 0 1 0 3.111-3.11Zm0 4.666a1.556 1.556 0 1 1 0-3.11 1.556 1.556 0 0 1 0 3.11Z"/>
</svg>
