<svg width="14" height="14" viewBox="0 0 14 14" fill="none" xmlns="http://www.w3.org/2000/svg">
<path fill-rule="evenodd" clip-rule="evenodd" d="M5.28567 4.97937H7.76167V6.21271C8.11834 5.50337 9.03301 4.86604 10.407 4.86604C13.041 4.86604 13.6663 6.27804 13.6663 8.86871V13.6667H10.9997V9.45871C10.9997 7.98337 10.643 7.15137 9.73501 7.15137C8.47567 7.15137 7.95234 8.04804 7.95234 9.45804V13.6667H5.28567V4.97937ZM0.713008 13.5534H3.37967V4.86604H0.713008V13.5534ZM3.76167 2.03337C3.76177 2.25689 3.71744 2.4782 3.63127 2.68443C3.54509 2.89067 3.41878 3.07772 3.25967 3.23471C2.93727 3.55512 2.50088 3.73448 2.04634 3.73337C1.5926 3.73307 1.15722 3.55417 0.834341 3.23537C0.675815 3.07785 0.549932 2.89059 0.463904 2.68433C0.377875 2.47807 0.333394 2.25686 0.333008 2.03337C0.333008 1.58204 0.513008 1.15004 0.835008 0.831374C1.1576 0.512146 1.59317 0.333175 2.04701 0.333374C2.50167 0.333374 2.93767 0.512708 3.25967 0.831374C3.58101 1.15004 3.76167 1.58204 3.76167 2.03337Z" fill="#020202"/>
</svg>
