<svg width="18" height="14" viewBox="0 0 18 14" fill="none" xmlns="http://www.w3.org/2000/svg">
<path d="M15.667 0.333374C16.0875 0.333241 16.4925 0.492046 16.8008 0.777955C17.1091 1.06386 17.298 1.45574 17.3295 1.87504L17.3337 2.00004V12C17.3338 12.4205 17.175 12.8255 16.8891 13.1338C16.6032 13.4421 16.2113 13.631 15.792 13.6625L15.667 13.6667H2.33366C1.91318 13.6668 1.50819 13.508 1.19987 13.2221C0.891551 12.9362 0.702695 12.5443 0.671159 12.125L0.666992 12V2.00004C0.666859 1.57956 0.825664 1.17457 1.11157 0.866251C1.39748 0.557933 1.78936 0.369077 2.20866 0.337541L2.33366 0.333374H15.667ZM15.667 3.17837L9.88366 8.96171C9.64928 9.19579 9.33158 9.32727 9.00033 9.32727C8.66907 9.32727 8.35137 9.19579 8.11699 8.96171L2.33366 3.17837V12H15.667V3.17837ZM14.4887 2.00004H3.51199L9.00033 7.48837L14.4887 2.00004Z" fill="black"/>
</svg>
